HIERARCHY
ROOT Hips
{
	OFFSET -3.958830 18.904000 13.208200
	CHANNELS 6 Xposition Yposition Zposition Zrotation Yrotation Xrotation 
	JOINT LHipJoint
	{
		OFFSET 0.000000 0.000000 0.000000
		CHANNELS 3 Zrotation Yrotation Xrotation
		JOINT LeftUpLeg
		{
			OFFSET 1.800000 -1.400000 0.085000
			CHANNELS 3 Zrotation Yrotation Xrotation
			JOINT LeftLeg
			{
				OFFSET 2.215000 -6.000000 0.000000
				CHANNELS 3 Zrotation Yrotation Xrotation
				JOINT LeftFoot
				{
					OFFSET 2.500000 -6.900000 0.000000
					CHANNELS 3 Zrotation Yrotation Xrotation
					JOINT LeftToeBase
					{
						OFFSET 0.200000 -0.500000 1.950000
						CHANNELS 3 Zrotation Yrotation Xrotation
						End Site
						{
							OFFSET 0.000000 0.000000 0.000000
						}
					}
				}
			}
		}
	}
	JOINT RHipJoint
	{
		OFFSET 0.000000 0.000000 0.000000
		CHANNELS 3 Zrotation Yrotation Xrotation
		JOINT RightUpLeg
		{
			OFFSET -1.800000 -1.400000 0.085000
			CHANNELS 3 Zrotation Yrotation Xrotation
			JOINT RightLeg
			{
				OFFSET -2.215000 -6.000000 0.000000
				CHANNELS 3 Zrotation Yrotation Xrotation
				JOINT RightFoot
				{
					OFFSET -2.500000 -6.900000 0.000000
					CHANNELS 3 Zrotation Yrotation Xrotation
					JOINT RightToeBase
					{
						OFFSET -0.200000 -0.500000 1.950000
						CHANNELS 3 Zrotation Yrotation Xrotation
						End Site
						{
							OFFSET 0.000000 0.000000 0.000000
						}
					}
				}
			}
		}
	}
	JOINT LowerBack
	{
		OFFSET 0.000000 0.000000 0.000000
		CHANNELS 3 Zrotation Yrotation Xrotation
		JOINT Spine
		{
			OFFSET -0.087000 1.940000 -0.288900
			CHANNELS 3 Zrotation Yrotation Xrotation
			JOINT Spine1
			{
				OFFSET 0.000000 1.950000 0.060000
				CHANNELS 3 Zrotation Yrotation Xrotation
				JOINT Neck
				{
					OFFSET 0.000000 0.000000 0.000000
					CHANNELS 3 Zrotation Yrotation Xrotation
					JOINT Neck1
					{
						OFFSET 0.000000 1.600000 0.340000
						CHANNELS 3 Zrotation Yrotation Xrotation
						JOINT Head
						{
							OFFSET 0.000000 1.667000 -0.240000
							CHANNELS 3 Zrotation Yrotation Xrotation
							End Site
							{
								OFFSET 0.000000 0.000000 0.000000
							}
						}
					}
				}
				JOINT LeftShoulder
				{
					OFFSET 0.000000 0.000000 0.000000
					CHANNELS 3 Zrotation Yrotation Xrotation
					JOINT LeftArm
					{
						OFFSET 2.700000 1.550000 -0.730000
						CHANNELS 3 Zrotation Yrotation Xrotation
						JOINT LeftForeArm
						{
							OFFSET 5.450000 0.000000 0.000000
							CHANNELS 3 Zrotation Yrotation Xrotation
							JOINT LeftHand
							{
								OFFSET 3.450000 0.000000 0.000000
								CHANNELS 3 Zrotation Yrotation Xrotation
								JOINT LeftHandIndex1
								{
									OFFSET 0.750000 0.000000 0.000000
									CHANNELS 3 Zrotation Yrotation Xrotation
									End Site
									{
										OFFSET 0.000000 0.000000 0.000000
									}
								}
							}
						}
					}
				}
				JOINT RightShoulder
				{
					OFFSET 0.000000 0.000000 0.000000
					CHANNELS 3 Zrotation Yrotation Xrotation
					JOINT RightArm
					{
						OFFSET -2.700000 1.550000 -0.730000
						CHANNELS 3 Zrotation Yrotation Xrotation
						JOINT RightForeArm
						{
							OFFSET -5.450000 0.000000 0.000000
							CHANNELS 3 Zrotation Yrotation Xrotation
							JOINT RightHand
							{
								OFFSET -3.450000 0.000000 0.000000
								CHANNELS 3 Zrotation Yrotation Xrotation
								JOINT RightHandIndex1
								{
									OFFSET -0.750000 0.000000 0.000000
									CHANNELS 3 Zrotation Yrotation Xrotation
									End Site
									{
										OFFSET 0.000000 0.000000 0.000000
									}
								}
							}
						}
					}
				}
			}
		}
	}
}
MOTION
Frames: 4
Frame Time: 0.016667
-3.078230 17.048280 -1.660850 8.542172 36.459396 -0.914906 -14.786409 11.169590 2.807693 -2.395861 -1.888268 -10.199188 -16.180991 8.396280 14.789555 -0.238646 4.914052 2.902294 0.085800 0.044660 -0.003250 18.741132 -12.422688 2.418955 -21.131102 0.536223 7.661967 -1.002799 -5.538054 9.288806 -0.494503 -5.967982 2.374979 0.268150 0.396970 0.119580 -6.020876 3.543075 -7.313104 14.075358 4.742263 2.520402 -14.459798 5.512601 16.220992 8.129267 -4.982635 -7.434687 -5.388975 6.281071 47.299587 -6.316480 4.394870 -0.185390 -5.051581 -25.108074 12.378720 -2.174622 -8.986781 -0.472966 26.558317 -22.496568 -4.167054 -3.993893 2.979529 0.036150 0.353930 -0.201630 0.075960 -9.228201 31.205033 -9.109968 17.032125 57.574878 22.569409 -20.123029 39.103952 -5.683523 2.158473 -1.170395 -0.263860 0.283240 0.174430 -0.069210 
-3.044680 17.065810 -1.658850 8.058302 36.628119 -0.724569 -14.784752 11.215066 2.897965 -1.966975 -2.087798 -10.745348 -17.603245 8.983782 15.560671 -0.143777 5.152560 2.816546 0.053070 0.003060 -0.031560 18.722737 -12.382047 2.424845 -20.855917 0.327750 6.983521 -0.065926 -5.703248 9.394261 -0.475883 -5.879671 2.412178 0.220600 0.394870 0.117070 -6.013487 3.358327 -7.455772 13.982884 4.401256 3.056481 -15.266614 5.441624 15.885199 8.046982 -4.547856 -8.407761 -4.962930 6.160395 47.043444 -5.534160 4.449390 0.425970 -7.272191 -27.149384 13.182009 -1.672055 -8.324021 -1.268117 29.900064 -18.363976 -4.180610 -4.024581 3.005825 0.051120 0.336240 -0.194200 0.076210 -7.137868 33.425899 -7.987552 16.860786 56.324757 20.780478 -19.877489 39.919272 -5.677527 2.188354 -1.147785 -0.256860 0.268260 0.181370 -0.061150 
-3.011810 17.077550 -1.650690 7.653076 36.312587 -0.278612 -14.795149 11.345186 3.028343 -1.534001 -2.204495 -11.207584 -18.665467 9.127723 15.105000 -0.078919 5.185997 2.796742 0.052200 0.005560 -0.034530 18.671731 -12.409253 2.339671 -20.636331 0.219603 5.712968 -0.553792 -5.584245 10.628443 -0.438522 -5.685223 2.473055 0.196220 0.367510 0.111410 -5.917287 3.100843 -7.560246 13.264639 3.915650 3.635834 -15.975911 5.262451 15.469020 7.884839 -4.360212 -9.409351 -4.928041 6.589743 46.096718 -4.766180 5.086040 0.583690 -8.283302 -28.597102 13.919904 -1.941762 -7.121999 -2.107065 34.030330 -14.894333 -4.203168 -4.044775 3.068061 0.058420 0.308140 -0.175180 0.080130 -6.079183 35.024916 -7.054510 17.307957 55.087794 19.354622 -21.408748 41.706599 -6.570957 2.190444 -1.112436 -0.235990 0.239540 0.162980 -0.055720 
-2.980890 17.109610 -1.645760 6.978227 36.111077 -0.575337 -14.819463 11.527664 3.060555 -1.097822 -2.105679 -11.155620 -18.120688 8.889831 14.763218 -0.075572 5.076106 2.833100 0.046800 0.006280 -0.046020 18.611841 -12.423166 2.307981 -20.267160 0.038956 4.850594 -0.294882 -5.636914 11.569167 -0.412161 -5.567014 2.509565 0.180900 0.362550 0.110560 -5.820275 2.806848 -7.635465 12.317340 3.344141 4.396570 -16.141441 4.923256 15.610927 7.588363 -4.264332 -10.212233 -4.974112 7.089068 45.778039 -4.021270 5.579370 0.742930 -8.924566 -29.791662 14.346072 -2.248722 -6.525582 -2.908731 37.295533 -12.484994 -4.227558 -4.082614 3.111926 0.060780 0.296380 -0.164640 0.085140 -4.950014 36.376562 -6.088354 18.321982 54.362909 18.727067 -22.971443 40.263248 -7.182736 2.198909 -1.039828 -0.224050 0.228690 0.157320 -0.046850 
